<?xml version="1.0" encoding="UTF-8" standalone="no"?>
<svg width="2153px" height="450px" viewBox="0 0 2153 450" version="1.1" xmlns="http://www.w3.org/2000/svg" xmlns:xlink="http://www.w3.org/1999/xlink">
    <!-- Generator: Sketch 43.2 (39069) - http://www.bohemiancoding.com/sketch -->
    <title>Group</title>
    <desc>Created with Sketch.</desc>
    <defs></defs>
    <g id="Page-1" stroke="none" stroke-width="1" fill="none" fill-rule="evenodd">
        <g id="Group">
            <path d="M796.278,358.41 L796.278,167.296 L717.364,312.034 L694.176,312.034 L614.888,167.296 L614.888,358.41 L573,358.41 L573,92.87 L617.88,92.87 L705.77,255.186 L793.66,92.87 L838.54,92.87 L838.54,358.41 L796.278,358.41 Z M1079.418,321.384 L1079.418,358.41 L897.28,358.41 L897.28,92.87 L1076.052,92.87 L1076.052,129.896 L939.168,129.896 L939.168,205.444 L1057.726,205.444 L1057.726,240.226 L939.168,240.226 L939.168,321.384 L1079.418,321.384 Z M1163.59,171.41 L1163.59,358.41 L1121.702,358.41 L1121.702,92.87 L1154.614,92.87 L1306.458,284.358 L1306.458,93.244 L1348.72,93.244 L1348.72,358.41 L1313.938,358.41 L1163.59,171.41 Z M1426.908,92.87 L1500.212,226.014 L1574.264,92.87 L1620.266,92.87 L1521.156,263.414 L1521.156,358.41 L1479.268,358.41 L1479.268,262.666 L1380.906,92.87 L1426.908,92.87 Z M1744.456,360.28 C1725.50657,360.28 1708.24041,356.477705 1692.657,348.873 C1677.07359,341.268295 1663.67206,331.170396 1652.452,318.579 C1641.23194,305.987604 1632.5677,291.588748 1626.459,275.382 C1620.3503,259.175252 1617.296,242.594751 1617.296,225.64 C1617.296,207.937245 1620.5373,190.982748 1627.02,174.776 C1633.5027,158.569252 1642.41628,144.232729 1653.761,131.766 C1665.10572,119.299271 1678.56959,109.38837 1694.153,102.033 C1709.73641,94.6776299 1726.75324,91 1745.204,91 C1764.15343,91 1781.41959,94.9269607 1797.003,102.781 C1812.58641,110.635039 1825.92561,120.919936 1837.021,133.636 C1848.11639,146.352064 1856.7183,160.75092 1862.827,176.833 C1868.9357,192.91508 1871.99,209.308583 1871.99,226.014 C1871.99,243.716755 1868.81103,260.671252 1862.453,276.878 C1856.09497,293.084748 1847.18139,307.358938 1835.712,319.701 C1824.24261,332.043062 1810.71641,341.89163 1795.133,349.247 C1779.54959,356.60237 1762.65742,360.28 1744.456,360.28 Z M1659.932,225.64 C1659.932,238.106729 1661.92665,250.199275 1665.916,261.918 C1669.90535,273.636725 1675.57763,283.983955 1682.933,292.96 C1690.28837,301.936045 1699.20195,309.104307 1709.674,314.465 C1720.14605,319.825693 1731.8646,322.506 1744.83,322.506 C1758.29407,322.506 1770.19961,319.701028 1780.547,314.091 C1790.89438,308.480972 1799.6833,301.063379 1806.914,291.838 C1814.1447,282.612621 1819.62998,272.265391 1823.37,260.796 C1827.11002,249.326609 1828.98,237.60806 1828.98,225.64 C1828.98,212.923936 1826.98535,200.769058 1822.996,189.175 C1819.00665,177.580942 1813.33437,167.358378 1805.979,158.507 C1798.62363,149.655622 1789.77238,142.549693 1779.425,137.189 C1769.07761,131.828307 1757.54606,129.148 1744.83,129.148 C1731.36593,129.148 1719.39805,131.952972 1708.926,137.563 C1698.45395,143.173028 1689.6027,150.465955 1682.372,159.442 C1675.1413,168.418045 1669.59369,178.702942 1665.729,190.297 C1661.86431,201.891058 1659.932,213.67194 1659.932,225.64 Z M2024.604,360.28 C2005.65457,360.28 1988.38841,356.477705 1972.805,348.873 C1957.22159,341.268295 1943.82006,331.170396 1932.6,318.579 C1921.37994,305.987604 1912.7157,291.588748 1906.607,275.382 C1900.4983,259.175252 1897.444,242.594751 1897.444,225.64 C1897.444,207.937245 1900.6853,190.982748 1907.168,174.776 C1913.6507,158.569252 1922.56428,144.232729 1933.909,131.766 C1945.25372,119.299271 1958.71759,109.38837 1974.301,102.033 C1989.88441,94.6776299 2006.90124,91 2025.352,91 C2044.30143,91 2061.56759,94.9269607 2077.151,102.781 C2092.73441,110.635039 2106.07361,120.919936 2117.169,133.636 C2128.26439,146.352064 2136.8663,160.75092 2142.975,176.833 C2149.0837,192.91508 2152.138,209.308583 2152.138,226.014 C2152.138,243.716755 2148.95903,260.671252 2142.601,276.878 C2136.24297,293.084748 2127.32939,307.358938 2115.86,319.701 C2104.39061,332.043062 2090.86441,341.89163 2075.281,349.247 C2059.69759,356.60237 2042.80542,360.28 2024.604,360.28 Z M1940.08,225.64 C1940.08,238.106729 1942.07465,250.199275 1946.064,261.918 C1950.05335,273.636725 1955.72563,283.983955 1963.081,292.96 C1970.43637,301.936045 1979.34995,309.104307 1989.822,314.465 C2000.29405,319.825693 2012.0126,322.506 2024.978,322.506 C2038.44207,322.506 2050.34761,319.701028 2060.695,314.091 C2071.04238,308.480972 2079.8313,301.063379 2087.062,291.838 C2094.2927,282.612621 2099.77798,272.265391 2103.518,260.796 C2107.25802,249.326609 2109.128,237.60806 2109.128,225.64 C2109.128,212.923936 2107.13335,200.769058 2103.144,189.175 C2099.15465,177.580942 2093.48237,167.358378 2086.127,158.507 C2078.77163,149.655622 2069.92038,142.549693 2059.573,137.189 C2049.22561,131.828307 2037.69406,129.148 2024.978,129.148 C2011.51393,129.148 1999.54605,131.952972 1989.074,137.563 C1978.60195,143.173028 1969.7507,150.465955 1962.52,159.442 C1955.2893,168.418045 1949.74169,178.702942 1945.877,190.297 C1942.01231,201.891058 1940.08,213.67194 1940.08,225.64 Z" id="MENYOO" fill="#0F399D"></path>
            <path d="M134,80.2674793 L134,80 L65,80 L65,370 L134,370 L134,190.775026 L199.952554,341.422682 L250.00659,341.422682 L258.890705,322.749505 L149.601139,80.2674793 L134,80.2674793 Z M0,0 L450,0 L450,450 L0,450 L0,0 Z M315,294.919922 L315,369.931641 L384,369.931641 L384,139 L315,294.919922 Z M300.987642,80.1772607 L250.76552,187.87895 L285.633424,258.353042 L364.109987,80.1772607 L300.987642,80.1772607 Z" id="Combined-Shape" fill="#0176E9"></path>
        </g>
    </g>
</svg>